<svg width="991" height="647" xmlns="http://www.w3.org/2000/svg" xmlns:xlink="http://www.w3.org/1999/xlink" overflow="hidden"><defs><clipPath id="clip0"><rect x="233" y="30" width="991" height="647"/></clipPath></defs><g clip-path="url(#clip0)" transform="translate(-233 -30)"><rect x="252.5" y="192.5" width="774" height="190" stroke="#000000" stroke-width="1.33333" stroke-miterlimit="8" fill="#DAE3F3"/><text font-family="Calibri,Calibri_MSFontService,sans-serif" font-weight="700" font-size="16" transform="translate(602.692 211)">Core Entity</text><rect x="252.5" y="562.5" width="774" height="113" stroke="#000000" stroke-width="1.33333" stroke-miterlimit="8" fill="#F2F2F2"/><text font-family="Calibri,Calibri_MSFontService,sans-serif" font-weight="700" font-size="16" transform="translate(518.068 581)">Observable<tspan font-size="16" x="78.9933" y="0">Manufacturing Elements</tspan></text><rect x="252.5" y="415.5" width="774" height="113" stroke="#000000" stroke-width="1.33333" stroke-miterlimit="8" fill="#DAE3F3"/><text font-family="Calibri,Calibri_MSFontService,sans-serif" font-weight="700" font-size="16" transform="translate(502.462 433)">Data Collection and Device Control Entity</text><rect x="1046.5" y="45.5001" width="129" height="483" stroke="#000000" stroke-width="1.33333" stroke-miterlimit="8" fill="#DAE3F3"/><rect x="1094.5" y="51.5001" width="35" height="471" stroke="#000000" stroke-width="1.33333" stroke-miterlimit="8" fill="#FFFFFF"/><text font-family="Calibri,Calibri_MSFontService,sans-serif" font-weight="400" font-size="13" transform="matrix(-1.83697e-16 -1 1 -1.83697e-16 1115.64 336)">Data Assurance FE</text><rect x="1135.5" y="51.5001" width="35" height="471" stroke="#000000" stroke-width="1.33333" stroke-miterlimit="8" fill="#FFFFFF"/><text font-family="Calibri,Calibri_MSFontService,sans-serif" font-weight="400" font-size="13" transform="matrix(-1.83697e-16 -1 1 -1.83697e-16 1156.36 340)">Security Support FE<tspan font-weight="700" font-size="16" x="-11" y="39.5114">Cross</tspan><tspan font-weight="700" font-size="16" x="24" y="39.5114">-</tspan><tspan font-weight="700" font-size="16" x="29" y="39.5114">System Entity</tspan></text><rect x="271.5" y="615.5" width="737" height="38" stroke="#000000" stroke-width="1.33333" stroke-miterlimit="8" fill="#FFFFFF"/><text font-family="Calibri,Calibri_MSFontService,sans-serif" font-weight="400" font-size="13" transform="translate(581.779 638)">Resource<tspan font-size="13" x="50" y="0">-</tspan>specific FEs</text><rect x="252.5" y="45.5001" width="774" height="113" stroke="#000000" stroke-width="1.33333" stroke-miterlimit="8" fill="#DAE3F3"/><text font-family="Calibri,Calibri_MSFontService,sans-serif" font-weight="700" font-size="16" transform="translate(602.768 64)">User Entity</text><rect x="271.5" y="98.5001" width="737" height="38" stroke="#000000" stroke-width="1.33333" stroke-miterlimit="8" fill="#FFFFFF"/><text font-family="Calibri,Calibri_MSFontService,sans-serif" font-weight="400" font-size="13" transform="translate(593.066 121)">User Interface FE</text><path d="M0 0 18.8976 0.000104987" stroke="#000000" stroke-width="2" stroke-miterlimit="8" fill="none" fill-rule="evenodd" transform="matrix(-1 0 0 1 1044.9 287)"/><path d="M639 158 639 192.073" stroke="#000000" stroke-width="2" stroke-miterlimit="8" fill="none" fill-rule="evenodd"/><path d="M0 0 18.8976 0.000104987" stroke="#000000" stroke-width="2" stroke-miterlimit="8" fill="none" fill-rule="evenodd" transform="matrix(-1 0 0 1 1044.9 101)"/><path d="M639 382 639 414.702" stroke="#000000" stroke-width="2" stroke-miterlimit="8" fill="none" fill-rule="evenodd"/><rect x="780" y="247" width="227" height="126" stroke="#000000" stroke-width="2" stroke-miterlimit="8" fill="#DEEBF7"/><text font-family="Calibri,Calibri_MSFontService,sans-serif" font-weight="400" font-size="16" transform="translate(785.329 262)">Resource Access and Interchange <tspan font-size="16" x="74.72" y="19">Sub</tspan>-<tspan font-size="16" x="103.553" y="19">Entity</tspan></text><rect x="272" y="247" width="227" height="126" stroke="#000000" stroke-width="2" stroke-miterlimit="8" fill="#DEEBF7"/><text font-family="Calibri,Calibri_MSFontService,sans-serif" font-weight="400" font-size="16" transform="translate(293.204 262)">Operation and Management <tspan font-size="16" x="58.9467" y="19">Sub</tspan>-<tspan font-size="16" x="87.78" y="19">Entity</tspan></text><rect x="278.5" y="330.5" width="102" height="38" stroke="#000000" stroke-width="1.33333" stroke-miterlimit="8" fill="#FFFFFF"/><text font-family="Calibri,Calibri_MSFontService,sans-serif" font-weight="400" font-size="13" transform="translate(288.05 345)">Presentation &amp; <tspan font-size="13" x="-8.74667" y="16">Representation</tspan><tspan font-size="13" x="77.5867" y="16">FE</tspan></text><rect x="391.5" y="330.5" width="102" height="38" stroke="#000000" stroke-width="1.33333" stroke-miterlimit="8" fill="#FFFFFF"/><text font-family="Calibri,Calibri_MSFontService,sans-serif" font-weight="400" font-size="13" transform="translate(398.518 345)">Synchronization <tspan font-size="13" x="37" y="16">FE</tspan></text><rect x="278.5" y="287.5" width="102" height="38" stroke="#000000" stroke-width="1.33333" stroke-miterlimit="8" fill="#FFFFFF"/><text font-family="Calibri,Calibri_MSFontService,sans-serif" font-weight="400" font-size="13" transform="translate(311.637 302)">Digital <tspan font-size="13" x="-16.3333" y="16">Modeling FE</tspan></text><rect x="391.5" y="287.5" width="102" height="38" stroke="#000000" stroke-width="1.33333" stroke-miterlimit="8" fill="#FFFFFF"/><text font-family="Calibri,Calibri_MSFontService,sans-serif" font-weight="400" font-size="13" transform="translate(398.268 310)">Maintenance FE</text><rect x="526" y="247" width="227" height="126" stroke="#000000" stroke-width="2" stroke-miterlimit="8" fill="#DEEBF7"/><text font-family="Calibri,Calibri_MSFontService,sans-serif" font-weight="400" font-size="16" transform="translate(563.428 262)">Application and Service <tspan font-size="16" x="42.6733" y="19">Sub</tspan>-<tspan font-size="16" x="71.5067" y="19">Entity</tspan></text><path d="M499 328 526.179 328" stroke="#000000" stroke-width="2" stroke-miterlimit="8" fill="none" fill-rule="evenodd"/><path d="M753 328 780.179 328" stroke="#000000" stroke-width="2" stroke-miterlimit="8" fill="none" fill-rule="evenodd"/><path d="M0 0 0.000104987 33.9532" stroke="#000000" stroke-width="2" stroke-miterlimit="8" fill="none" fill-rule="evenodd" transform="matrix(-1 0 0 1 639 528)"/><path d="M0 0 18.8976 0.000104987" stroke="#000000" stroke-width="2" stroke-miterlimit="8" fill="none" fill-rule="evenodd" transform="matrix(-1 0 0 1 1044.9 471)"/><rect x="272" y="444" width="333" height="76" stroke="#000000" stroke-width="2" stroke-miterlimit="8" fill="#DEEBF7"/><text font-family="Calibri,Calibri_MSFontService,sans-serif" font-weight="400" font-size="16" transform="translate(353.818 463)">Data Collection Sub<tspan font-size="16" x="126.493" y="0">-</tspan><tspan font-size="16" x="131.327" y="0">Entity</tspan></text><rect x="280.5" y="473.5" width="98" height="38" stroke="#000000" stroke-width="1.33333" stroke-miterlimit="8" fill="#FFFFFF"/><text font-family="Calibri,Calibri_MSFontService,sans-serif" font-weight="400" font-size="13" transform="translate(288.038 488)">Data Collecting <tspan font-size="13" x="34.5" y="16">FE</tspan></text><rect x="389.5" y="473.5" width="98" height="38" stroke="#000000" stroke-width="1.33333" stroke-miterlimit="8" fill="#FFFFFF"/><text font-family="Calibri,Calibri_MSFontService,sans-serif" font-weight="400" font-size="13" transform="translate(412.991 488)">Data Pre<tspan font-size="13" x="46.5" y="0">-</tspan><tspan font-size="13" x="-12.8333" y="16">Processing  FE</tspan></text><rect x="498.5" y="473.5" width="99" height="38" stroke="#000000" stroke-width="1.33333" stroke-miterlimit="8" fill="#FFFFFF"/><text font-family="Calibri,Calibri_MSFontService,sans-serif" font-weight="400" font-size="13" transform="translate(503.777 496)">Identification FE</text><rect x="674" y="444" width="333" height="76" stroke="#000000" stroke-width="2" stroke-miterlimit="8" fill="#DEEBF7"/><text font-family="Calibri,Calibri_MSFontService,sans-serif" font-weight="400" font-size="16" transform="translate(757.799 463)">Device Control Sub<tspan font-size="16" x="122.68" y="0">-</tspan><tspan font-size="16" x="127.513" y="0">Entity</tspan></text><rect x="682.5" y="473.5" width="98" height="38" stroke="#000000" stroke-width="1.33333" stroke-miterlimit="8" fill="#FFFFFF"/><text font-family="Calibri,Calibri_MSFontService,sans-serif" font-weight="400" font-size="13" transform="translate(693.28 496)">Controlling FE</text><rect x="901.5" y="473.5" width="98" height="38" stroke="#000000" stroke-width="1.33333" stroke-miterlimit="8" fill="#FFFFFF"/><text font-family="Calibri,Calibri_MSFontService,sans-serif" font-weight="400" font-size="13" transform="translate(905.852 496)">Identification FE</text><rect x="791.5" y="473.5" width="98" height="38" stroke="#000000" stroke-width="1.33333" stroke-miterlimit="8" fill="#FFFFFF"/><text font-family="Calibri,Calibri_MSFontService,sans-serif" font-weight="400" font-size="13" transform="translate(806.149 496)">Actuation FE</text><path d="M386 248.333 386 224.333 893.902 224.333 893.902 247" stroke="#000000" stroke-width="2" stroke-miterlimit="8" fill="none" fill-rule="evenodd"/><rect x="532.5" y="330.5" width="102" height="38" stroke="#000000" stroke-width="1.33333" stroke-miterlimit="8" fill="#FFFFFF"/><text font-family="Calibri,Calibri_MSFontService,sans-serif" font-weight="400" font-size="13" transform="translate(540.254 345)">Analytic Service<tspan font-size="13" x="36.1667" y="16">FE</tspan></text><rect x="645.5" y="330.5" width="102" height="38" stroke="#000000" stroke-width="1.33333" stroke-miterlimit="8" fill="#FFFFFF"/><text font-family="Calibri,Calibri_MSFontService,sans-serif" font-weight="400" font-size="13" transform="translate(665.219 345)">Application <tspan font-size="13" x="1.08667" y="16">Support FE</tspan></text><rect x="532.5" y="287.5" width="102" height="38" stroke="#000000" stroke-width="1.33333" stroke-miterlimit="8" fill="#FFFFFF"/><text font-family="Calibri,Calibri_MSFontService,sans-serif" font-weight="400" font-size="13" transform="translate(546.088 310)">Simulation FE</text><rect x="645.5" y="287.5" width="102" height="38" stroke="#000000" stroke-width="1.33333" stroke-miterlimit="8" fill="#FFFFFF"/><text font-family="Calibri,Calibri_MSFontService,sans-serif" font-weight="400" font-size="13" transform="translate(661.303 310)">Reporting FE</text><rect x="786.5" y="330.5" width="102" height="38" stroke="#000000" stroke-width="1.33333" stroke-miterlimit="8" fill="#FFFFFF"/><text font-family="Calibri,Calibri_MSFontService,sans-serif" font-weight="400" font-size="13" transform="translate(789.205 353)">Access Control FE</text><rect x="786.5" y="287.5" width="102" height="38" stroke="#000000" stroke-width="1.33333" stroke-miterlimit="8" fill="#FFFFFF"/><text font-family="Calibri,Calibri_MSFontService,sans-serif" font-weight="400" font-size="13" transform="translate(794.538 302)">Interoperability <tspan font-size="13" x="12.6666" y="16">Support FE</tspan></text><rect x="899.5" y="287.5" width="102" height="38" stroke="#000000" stroke-width="1.33333" stroke-miterlimit="8" fill="#FFFFFF"/><text font-family="Calibri,Calibri_MSFontService,sans-serif" font-weight="400" font-size="13" transform="translate(919.503 302)">Plug &amp; Play <tspan font-size="13" x="0.753296" y="16">Support FE</tspan></text><rect x="1053.5" y="51.5001" width="35" height="471" stroke="#000000" stroke-width="1.33333" stroke-miterlimit="8" fill="#FFFFFF"/><text font-family="Calibri,Calibri_MSFontService,sans-serif" font-weight="400" font-size="13" transform="matrix(-1.83697e-16 -1 1 -1.83697e-16 1074.92 339)">Data <tspan font-size="13" x="29" y="5.32721e-15">Translation</tspan><tspan font-size="13" x="92" y="1.69001e-14">FE</tspan></text><rect x="235" y="31" width="978" height="509" stroke="#000000" stroke-width="2" stroke-miterlimit="8" stroke-dasharray="6 2" fill="none"/><text font-family="Calibri,Calibri_MSFontService,sans-serif" font-weight="700" font-size="16" transform="translate(1055.58 559)">Digital Twin Framework</text><rect x="899.5" y="330.5" width="102" height="38" stroke="#000000" stroke-width="1.33333" stroke-miterlimit="8" fill="#FFFFFF"/><text font-family="Calibri,Calibri_MSFontService,sans-serif" font-weight="400" font-size="13" transform="translate(903.587 353)">Peer Interface FE</text></g></svg>